<svg xmlns="http://www.w3.org/2000/svg" viewBox="0 0 320 60">
  <!-- Mirrored R (Я) in blue -->
  <g transform="translate(0, 0)">
    <path d="M30.5 2C39.5 2 45 5.5 48.5 10C52 14.5 53 20 53 24C53 31 50 37 44 41L54 58H42L33 42.5H22V58H12V2H30.5ZM22 11V34H30.5C35 34 38 32.5 40 30C42 27.5 43 24.5 43 22C43 19 42 16 40 14C38 11.5 35 11 30.5 11H22Z" fill="#4466FF" transform="translate(52, 0) scale(-1, 1)"/>
  </g>
  <!-- "Replica" text -->
  <text x="58" y="47" font-family="'Inter', 'Helvetica Neue', Arial, sans-serif" font-size="48" font-weight="700" fill="#111111" letter-spacing="-1.5">Replica</text>
</svg>
